<svg width="162" height="27" viewBox="0 0 162 27" fill="none" xmlns="http://www.w3.org/2000/svg">
<path fill-rule="evenodd" clip-rule="evenodd" d="M66.9065 4.47406C68.1658 4.47406 69.1866 3.47247 69.1866 2.23703C69.1866 1.00159 68.1658 0 66.9065 0C65.6473 0 64.6264 1.00159 64.6264 2.23703C64.6264 3.47247 65.6473 4.47406 66.9065 4.47406ZM141.083 17.0697C141.693 16.2146 141.998 15.1076 141.998 13.7486C141.998 11.848 141.509 10.4888 140.531 9.67164C139.93 9.17754 139.233 8.93043 138.438 8.93043C137.228 8.93043 136.339 9.37915 135.772 10.2773C135.206 11.1754 134.922 12.29 134.922 13.6201C134.922 15.0552 135.21 16.2028 135.787 17.0629C136.363 17.9231 137.237 18.3529 138.409 18.3529C139.581 18.3529 140.473 17.9253 141.083 17.0697ZM140.066 6.00061C140.811 6.41417 141.417 6.98687 141.882 7.71859V0.0348795H146.081V21.2894H142.056V19.1371C141.465 20.0586 140.792 20.7289 140.036 21.1471C139.281 21.5651 138.341 21.7739 137.218 21.7739C135.368 21.7739 133.811 21.0399 132.547 19.5718C131.283 18.1034 130.651 16.2196 130.651 13.9194C130.651 11.268 131.273 9.18217 132.518 7.66165C133.762 6.14114 135.426 5.38046 137.509 5.38046C138.467 5.38046 139.32 5.58742 140.066 6.00061ZM82.2755 13.7485C82.2755 15.1266 81.9773 16.2386 81.3817 17.0842C80.7861 17.9303 79.9512 18.353 78.8769 18.353C77.6363 18.353 76.7135 17.9158 76.1084 17.0412C75.5024 16.1672 75.1999 15.0647 75.1999 13.734C75.1999 12.6032 75.3463 11.6817 75.6394 10.9688C76.2055 9.62872 77.2457 8.9588 78.7595 8.9588C80.254 8.9588 81.2794 9.6432 81.836 11.0113C82.1289 11.7336 82.2755 12.6461 82.2755 13.7485ZM86.6201 13.3209C86.6201 10.9923 86.0277 9.09178 84.8428 7.61872C83.6583 6.14566 82.0184 5.40895 79.9222 5.40895C78.7622 5.40895 77.8068 5.64669 77.0559 6.12169C76.4225 6.50227 75.842 7.05332 75.3159 7.77555V0.0348969H71.1751V21.2895H75.2579V19.3364C75.8125 20.0971 76.329 20.6292 76.8058 20.9333C77.6042 21.4463 78.6605 21.703 79.9748 21.703C82.0681 21.703 83.699 20.9092 84.8672 19.3224C86.0355 17.7351 86.6201 15.735 86.6201 13.3209ZM13.3131 7.36357C12.8017 6.67881 12.1483 6.16987 11.3526 5.83722C10.557 5.50409 9.67204 5.33776 8.69793 5.33776C7.82972 5.33776 6.86156 5.48133 6.05685 5.795C5.29034 6.09394 4.90702 6.33497 4.14087 7.07753V0.0771103H0V21.2893H4.14087V12.8691C4.14087 11.5372 4.42188 10.5122 4.9844 9.79393C5.54716 9.07523 6.37147 8.71642 7.45806 8.71642C8.50608 8.71642 9.21766 9.07803 9.59255 9.80075C9.881 10.3146 10.0251 10.9903 10.0251 11.8274V21.2893H14.2533V12.1577C14.2533 10.7694 14.2049 9.76814 14.1084 9.15431C14.0119 8.54098 13.7468 7.94443 13.3131 7.36357ZM19.782 11.9807C19.9322 10.9691 20.2997 10.1673 20.8851 9.57561C21.4702 8.98344 22.2938 8.68741 23.3569 8.68741C24.334 8.68741 25.1527 8.96677 25.8128 9.52536C26.4729 10.0836 26.8405 10.9022 26.9159 11.9807H19.782ZM29.8165 8.36426C29.097 7.31741 28.1844 6.55138 27.0799 6.06591C25.9751 5.58057 24.7334 5.33772 23.3553 5.33772C21.0341 5.33772 19.1463 6.05606 17.6918 7.49237C16.2375 8.92832 15.5103 10.9926 15.5103 13.6842C15.5103 16.5569 16.3157 18.6302 17.9269 19.9048C19.5381 21.1794 21.3976 21.8167 23.5052 21.8167C26.0588 21.8167 28.0448 21.061 29.4634 19.55C30.3753 18.5999 30.8872 17.6639 30.9987 16.7419H26.771C26.5245 17.1979 26.2403 17.5545 25.9187 17.8107C25.3293 18.2862 24.5628 18.5235 23.6194 18.5235C22.7299 18.5235 21.9688 18.3292 21.3363 17.9391C20.2965 17.3121 19.7444 16.2193 19.6802 14.6604H31.2147C31.2352 13.3185 31.1898 12.2907 31.0783 11.577C30.8859 10.3584 30.4652 9.28774 29.8165 8.36426ZM42.8478 10.3413C42.285 9.41963 41.3727 8.95863 40.1105 8.95863C38.5934 8.95863 37.5514 9.65689 36.9838 11.054C36.6901 11.7954 36.5434 12.7364 36.5434 13.8767C36.5434 15.6824 37.0372 16.9511 38.0247 17.6829C38.6118 18.1104 39.3068 18.3242 40.1095 18.3242C41.2742 18.3242 42.1624 17.8871 42.7744 17.0126C43.3859 16.1384 43.6918 14.9741 43.6918 13.52C43.6918 12.3228 43.4103 11.2633 42.8478 10.3413ZM46.0258 7.41877C47.3175 8.75884 47.9634 10.7264 47.9634 13.3207C47.9634 16.0575 47.3322 18.1439 46.0699 19.5785C44.8073 21.0135 43.1815 21.7313 41.1928 21.7313C39.9252 21.7313 38.8723 21.4222 38.0339 20.8048C37.5758 20.4625 37.1273 19.9636 36.6887 19.3078V27H32.5914V5.75091H36.5579V8.0461C37.0063 7.37168 37.4839 6.83925 37.9907 6.44966C38.9169 5.7559 40.0186 5.40878 41.2955 5.40878C43.1574 5.40878 44.734 6.07906 46.0258 7.41877ZM53.5129 17.8681C53.2207 17.5639 53.031 17.051 52.9435 16.3282H48.7443C48.7443 17.9252 49.3387 19.2391 50.5278 20.27C51.7166 21.301 53.5584 21.8167 56.0528 21.8167C58.4985 21.8167 60.3061 21.3294 61.4758 20.3555C62.6454 19.3814 63.2303 18.1245 63.2303 16.585C63.2303 15.4161 62.8234 14.4421 62.0097 13.6629C61.1865 12.8928 59.9497 12.3182 58.3003 11.9377C55.8257 11.4057 54.3845 11.0305 53.9768 10.8118C53.5686 10.6029 53.3647 10.2653 53.3647 9.79979C53.3647 9.42918 53.5566 9.10603 53.9401 8.83032C54.3238 8.5545 54.9672 8.41677 55.8706 8.41677C56.968 8.41677 57.7452 8.69247 58.2019 9.24339C58.4447 9.54806 58.5952 9.96113 58.6533 10.4836H62.7944C62.6098 8.58309 61.8939 7.24569 60.6465 6.47089C59.3992 5.69671 57.7852 5.30931 55.8053 5.30931C53.7182 5.30931 52.0994 5.82507 50.9491 6.85598C49.7989 7.88701 49.2239 9.12002 49.2239 10.555C49.2239 11.7718 49.5918 12.703 50.3282 13.3493C51.0641 14.0051 52.332 14.5515 54.1316 14.9885C56.6314 15.5681 58.0754 15.9771 58.4636 16.2142C58.8517 16.4521 59.0457 16.7987 59.0457 17.2548C59.0457 17.7303 58.805 18.0869 58.3231 18.3241C57.8414 18.5619 57.1916 18.6804 56.3742 18.6804C54.9822 18.6804 54.0286 18.4095 53.5129 17.8681ZM64.8737 21.2893H69.0726V5.75093H64.8737V21.2893ZM92.4718 5.75108V15.1171C92.4718 16.0007 92.5777 16.666 92.7896 17.1126C93.1656 17.9018 93.9026 18.2959 95.0014 18.2959C96.4088 18.2959 97.3726 17.7351 97.8931 16.6137C98.1627 16.0057 98.298 15.2025 98.298 14.2046V5.75108H102.497V21.2893H98.4722V19.0942C98.4334 19.1416 98.3367 19.2845 98.1824 19.5217C98.0281 19.7595 97.8447 19.9687 97.6318 20.149C96.9847 20.7191 96.3596 21.109 95.7555 21.3179C95.1519 21.5267 94.4443 21.6316 93.6332 21.6316C91.2957 21.6316 89.721 20.8048 88.9097 19.1511C88.4556 18.2389 88.2289 16.8942 88.2289 15.1171V5.75108H92.4718ZM114.288 5.40891C114.104 5.3999 113.985 5.39273 113.932 5.38774C113.879 5.38311 113.813 5.38044 113.736 5.38044C112.496 5.38044 111.488 5.69909 110.714 6.33591C110.239 6.71601 109.682 7.42389 109.043 8.45991V5.75104H105.091V21.2894H109.261V13.8624C109.261 12.6176 109.42 11.6956 109.74 11.0972C110.312 10.0327 111.43 9.50031 113.097 9.50031C113.222 9.50031 113.387 9.5053 113.59 9.51479C113.794 9.52428 114.026 9.54326 114.288 9.57173V5.40891ZM124.206 14.157C124.475 14.0574 124.742 13.9272 125.007 13.7664V15.2739C124.977 16.6301 124.582 17.5638 123.822 18.0764C123.061 18.5883 122.229 18.8442 121.326 18.8442C120.757 18.8442 120.273 18.6904 119.877 18.3822C119.478 18.0738 119.28 17.5735 119.28 16.8816C119.28 16.1036 119.605 15.5299 120.256 15.1604C120.641 14.942 121.274 14.7569 122.155 14.6051L123.096 14.4346C123.566 14.3491 123.936 14.2565 124.206 14.157ZM125.137 19.4843C125.167 19.8354 125.137 21.3026 125.137 21.3026H129.154C129.134 20.6006 129.124 17.8582 129.124 17.3647V10.2523C129.124 8.38419 128.45 7.11408 127.101 6.44015C125.751 5.76743 124.208 5.43041 122.47 5.43041C119.801 5.43041 117.917 6.11334 116.82 7.47848C116.131 8.35159 115.743 9.46536 115.655 10.8216H119.642C119.741 10.2242 119.936 9.74994 120.23 9.39892C120.642 8.92478 121.342 8.688 122.332 8.688C123.214 8.688 123.882 8.80858 124.338 9.05046C124.794 9.29234 125.022 9.73084 125.022 10.3666C125.022 10.8879 124.724 11.2722 124.13 11.5185C123.799 11.6609 123.25 11.7795 122.48 11.8741L121.063 12.0451C119.457 12.2442 118.239 12.5761 117.412 13.0408C115.903 13.894 115.148 15.2739 115.148 17.1803C115.148 18.6502 115.617 19.7857 116.555 20.5866C117.493 21.3882 118.682 21.7891 120.121 21.7891C121.248 21.7891 122.259 21.5375 123.154 21.0352C123.903 20.6082 124.564 20.0912 125.137 19.4843ZM157.821 13.7664C157.557 13.9272 157.29 14.0574 157.021 14.157C156.751 14.2565 156.381 14.3491 155.911 14.4346L154.97 14.6051C154.089 14.7569 153.456 14.942 153.071 15.1604C152.42 15.5299 152.095 16.1036 152.095 16.8816C152.095 17.5735 152.293 18.0738 152.691 18.3822C153.088 18.6904 153.572 18.8442 154.141 18.8442C155.044 18.8442 155.876 18.5883 156.637 18.0764C157.397 17.5638 157.792 16.6301 157.821 15.2739V13.7664ZM157.952 21.3026C157.952 21.3026 157.981 19.8354 157.952 19.4843C157.378 20.0912 156.717 20.6082 155.969 21.0352C155.074 21.5375 154.063 21.7891 152.936 21.7891C151.496 21.7891 150.308 21.3882 149.37 20.5866C148.432 19.7857 147.963 18.6502 147.963 17.1803C147.963 15.2739 148.717 13.894 150.227 13.0408C151.054 12.5761 152.272 12.2442 153.878 12.0451L155.295 11.8741C156.064 11.7795 156.614 11.6609 156.945 11.5185C157.539 11.2722 157.836 10.8879 157.836 10.3666C157.836 9.73084 157.609 9.29234 157.153 9.05046C156.697 8.80858 156.029 8.688 155.147 8.688C154.157 8.688 153.456 8.92478 153.045 9.39892C152.751 9.74994 152.556 10.2242 152.457 10.8216H148.47C148.557 9.46536 148.946 8.35159 149.635 7.47848C150.732 6.11334 152.615 5.43041 155.285 5.43041C157.023 5.43041 158.566 5.76743 159.915 6.44015C161.265 7.11408 161.939 8.38419 161.939 10.2523V17.3647C161.939 17.8582 161.949 20.6006 161.968 21.3026H157.952Z" fill="#AEAEAE"/>
</svg>
